<svg class="svg-icon" style="width: 1em; height: 1em;vertical-align: middle;fill: currentColor;overflow: hidden;" viewBox="0 0 1024 1024" version="1.1" xmlns="http://www.w3.org/2000/svg"><path d="M141.538462 252.553846l42.461538-43.938461h675.446154l25.723077 17.230769c25.353846 16.984615 42.953846 43.569231 48.615384 73.6l4.307693 22.646154-13.292308 494.4c7.384615 33.723077-0.861538 53.292308-24.738462 58.584615S871.261538 696.123077 884.923077 322.092308c0-38.4-31.138462-69.661538-69.661539-69.661539H141.538462z" fill="#7FCDF3" /><path d="M829.784615 920.123077c-3.446154 0-6.892308-1.230769-9.6-3.446154l-15.384615-13.046154c-4.676923-4.061538-6.4-10.584615-4.307692-16.369231 2.092308-5.784615 7.630769-9.723077 13.907692-9.723076h0.369231c21.046154 0 38.153846-17.107692 38.153846-38.153847V327.384615c0-21.046154-17.107692-38.153846-38.153846-38.153846H139.076923c-9.969231 0-19.323077 3.815385-26.461538 10.707693-5.415385 5.292308-14.030769 5.538462-19.815385 0.615384l-10.215385-8.615384c-3.323077-2.830769-5.169231-6.892308-5.16923-11.2s1.846154-8.369231 5.046153-11.2l68.8-60.307693c14.769231-13.046154 33.846154-20.184615 53.538462-20.184615h627.323077c65.846154 0 119.384615 53.538462 119.384615 119.384615v486.276923c0 26.215385-8.369231 51.2-24 72.246154-15.753846 21.046154-37.292308 36.061538-62.523077 43.446154l-31.015384 9.107692c-1.353846 0.492308-2.707692 0.615385-4.184616 0.615385zM139.076923 259.692308h675.692308c37.292308 0 67.692308 30.4 67.692307 67.692307v512c0 13.661538-4.061538 26.338462-10.953846 36.923077 12.676923-6.276923 23.753846-15.507692 32.369231-27.076923 11.815385-15.876923 18.092308-34.707692 18.092308-54.523077V308.430769c0-49.6-40.246154-89.846154-89.846154-89.846154H204.8c-12.553846 0-24.615385 4.553846-34.092308 12.8l-32.246154 28.307693h0.615385z" fill="#1C1B55" /><path d="M320.832 130.158769l465.634462 197.649231c15.634462 6.637538 22.936615 24.712615 16.300307 40.347077L622.910769 791.869538c-6.636308 15.634462-24.711385 22.937846-40.345846 16.301539L116.930462 610.521846c-15.634462-6.637538-22.936615-24.712615-16.300308-40.347077l179.856-423.715692c6.636308-15.634462 24.711385-22.936615 40.345846-16.300308z" fill="#FFF7A6" /><path d="M602.326154 844.771692c-5.897846 0.036923-11.929846-1.187692-17.708308-3.639384L91.793231 631.940923c-23.111385-9.810462-33.934769-36.600615-24.124308-59.712L259.067077 121.323077c9.810462-23.111385 36.599385-33.936 59.712-24.125539l492.824615 209.191385c23.111385 9.810462 33.934769 36.600615 24.124308 59.712l-191.398154 450.904615c-7.357538 17.335385-24.242462 27.817846-42.002461 27.766154zM300.979692 123.068308c-6.286769 0.006154-12.123077 3.678769-14.72 9.796923L94.857846 583.768615a15.968 15.968 0 0 0 8.476308 20.979693l492.824615 209.191384a15.968 15.968 0 0 0 20.979693-8.476307l191.396923-450.904616a15.968 15.968 0 0 0-8.475077-20.980923L307.236923 124.387692c-2.039385-0.865231-4.157538-1.229538-6.258461-1.319384z" fill="#1C1B55" /><path d="M139.076923 274.461538h675.692308c29.169231 0 52.923077 23.753846 52.923077 52.923077v512c0 29.169231-23.753846 52.923077-52.923077 52.923077H139.076923c-29.169231 0-52.923077-23.753846-52.923077-52.923077V327.384615c0-29.169231 23.753846-52.923077 52.923077-52.923077z" fill="#FFFFFF" /><path d="M829.538462 921.846154H124.307692c-37.292308 0-67.692308-30.4-67.692307-67.692308V312.615385c0-37.292308 30.4-67.692308 67.692307-67.692308h705.23077c37.292308 0 67.692308 30.4 67.692307 67.692308v541.538461c0 37.292308-30.4 67.692308-67.692307 67.692308zM124.307692 274.461538c-21.046154 0-38.153846 17.107692-38.153846 38.153847v541.538461c0 21.046154 17.107692 38.153846 38.153846 38.153846h705.23077c21.046154 0 38.153846-17.107692 38.153846-38.153846V312.615385c0-21.046154-17.107692-38.153846-38.153846-38.153847H124.307692z" fill="#1C1B55" /><path d="M244.923077 679.384615h124.307692c4.8 0 8.615385 3.815385 8.615385 8.615385v57.846154c0 4.8-3.815385 8.615385-8.615385 8.615384H244.923077c-4.8 0-8.615385-3.815385-8.615385-8.615384v-57.846154c0-4.8 3.815385-8.615385 8.615385-8.615385z" fill="#D4F1FF" /><path d="M382.153846 780.307692h-150.153846c-11.815385 0-21.538462-9.723077-21.538462-21.538461v-83.692308c0-11.815385 9.723077-21.538462 21.538462-21.538461h150.153846c11.815385 0 21.538462 9.723077 21.538462 21.538461v83.692308c0 11.815385-9.723077 21.538462-21.538462 21.538461zM236.307692 754.461538h141.538462v-75.076923H236.307692v75.076923z" fill="#1C1B55" /><path d="M118.646154 889.353846c247.507692-37.415385 405.538462-89.230769 474.092308-155.323077S702.769231 515.446154 717.292308 276.923077l100.553846-1.846154c11.323077 0.615385 22.276923 5.046154 32.984615 13.661539 10.707692 8.492308 16.492308 21.415385 17.230769 38.76923v44.676923c0 30.153846 0.369231 183.753846 0.984616 460.676923 0.123077 31.261538-25.230769 56.615385-56.492308 56.738462H118.646154z" fill="#D4F1FF" /><path d="M626.830769 638.646154c9.846154 23.261538 24.123077 38.4 42.707693 45.415384 5.538462 2.092308 13.661538 3.2 24.123076 3.446154l175.261539-3.446154v36.553847l-175.753846-14.276923c-29.538462-2.461538-54.4-23.138462-62.030769-51.692308l-4.307693-16z" fill="#7FCDF3" /><path d="M792.123077 861.538462h-19.692308c-8.123077 0-14.769231-6.646154-14.769231-14.769231s6.646154-14.769231 14.769231-14.769231h19.692308c8.123077 0 14.769231 6.646154 14.769231 14.769231s-6.646154 14.769231-14.769231 14.769231z m-73.846154 0h-19.692308c-8.123077 0-14.769231-6.646154-14.76923-14.769231s6.646154-14.769231 14.76923-14.769231h19.692308c8.123077 0 14.769231 6.646154 14.769231 14.769231s-6.646154 14.769231-14.769231 14.769231z m-73.846154 0h-19.692307c-8.123077 0-14.769231-6.646154-14.769231-14.769231s6.646154-14.769231 14.769231-14.769231h19.692307c8.123077 0 14.769231 6.646154 14.769231 14.769231s-6.646154 14.769231-14.769231 14.769231z m-73.846154 0h-19.692307c-8.123077 0-14.769231-6.646154-14.769231-14.769231s6.646154-14.769231 14.769231-14.769231h19.692307c8.123077 0 14.769231 6.646154 14.769231 14.769231s-6.646154 14.769231-14.769231 14.769231z m-73.846153 0h-19.692308c-8.123077 0-14.769231-6.646154-14.769231-14.769231s6.646154-14.769231 14.769231-14.769231h19.692308c8.123077 0 14.769231 6.646154 14.76923 14.769231s-6.646154 14.769231-14.76923 14.769231z m-73.846154 0h-19.692308c-8.123077 0-14.769231-6.646154-14.769231-14.769231s6.646154-14.769231 14.769231-14.769231h19.692308c8.123077 0 14.769231 6.646154 14.76923 14.769231s-6.646154 14.769231-14.76923 14.769231z m-73.846154 0h-19.692308c-8.123077 0-14.769231-6.646154-14.769231-14.769231s6.646154-14.769231 14.769231-14.769231h19.692308c8.123077 0 14.769231 6.646154 14.769231 14.769231s-6.646154 14.769231-14.769231 14.769231z m-73.846154 0h-19.692308c-8.123077 0-14.769231-6.646154-14.76923-14.769231s6.646154-14.769231 14.76923-14.769231h19.692308c8.123077 0 14.769231 6.646154 14.769231 14.769231s-6.646154 14.769231-14.769231 14.769231z m-73.846154 0h-19.692308c-8.123077 0-14.769231-6.646154-14.76923-14.769231s6.646154-14.769231 14.76923-14.769231h19.692308c8.123077 0 14.769231 6.646154 14.769231 14.769231s-6.646154 14.769231-14.769231 14.769231z m-62.646154-23.63077c-6.646154 0-12.8-4.553846-14.4-11.323077-0.861538-3.446154-1.230769-7.015385-1.230769-10.584615v-12.430769c0-8.123077 6.646154-14.769231 14.769231-14.769231s14.769231 6.646154 14.769231 14.769231V816c0 1.230769 0.123077 2.461538 0.492307 3.692308 1.846154 7.876923-3.076923 15.876923-10.953846 17.723077-1.230769 0.369231-2.338462 0.492308-3.446154 0.492307zM823.384615 825.476923c-8.123077 0-14.769231-6.646154-14.76923-14.769231v-19.692307c0-8.123077 6.646154-14.769231 14.76923-14.769231s14.769231 6.646154 14.769231 14.769231v19.692307c0 8.123077-6.646154 14.769231-14.769231 14.769231z m-685.538461-61.292308c-8.123077 0-14.769231-6.646154-14.769231-14.76923v-19.692308c0-8.123077 6.646154-14.769231 14.769231-14.769231s14.769231 6.646154 14.769231 14.769231v19.692308c0 8.123077-6.646154 14.769231-14.769231 14.76923z m685.538461-12.553846c-8.123077 0-14.769231-6.646154-14.76923-14.769231v-19.692307c0-8.123077 6.646154-14.769231 14.76923-14.769231s14.769231 6.646154 14.769231 14.769231v19.692307c0 8.123077-6.646154 14.769231-14.769231 14.769231z m-685.538461-61.292307c-8.123077 0-14.769231-6.646154-14.769231-14.769231v-19.692308c0-8.123077 6.646154-14.769231 14.769231-14.769231s14.769231 6.646154 14.769231 14.769231v19.692308c0 8.123077-6.646154 14.769231-14.769231 14.769231z m685.538461-12.553847c-8.123077 0-14.769231-6.646154-14.76923-14.76923v-19.692308c0-8.123077 6.646154-14.769231 14.76923-14.769231s14.769231 6.646154 14.769231 14.769231v19.692308c0 8.123077-6.646154 14.769231-14.769231 14.76923z m-685.538461-61.292307c-8.123077 0-14.769231-6.646154-14.769231-14.769231v-19.692308c0-8.123077 6.646154-14.769231 14.769231-14.769231s14.769231 6.646154 14.769231 14.769231v19.692308c0 8.123077-6.646154 14.769231-14.769231 14.769231z m685.538461-12.553846c-8.123077 0-14.769231-6.646154-14.76923-14.769231v-19.692308c0-8.123077 6.646154-14.769231 14.76923-14.769231s14.769231 6.646154 14.769231 14.769231v19.692308c0 8.123077-6.646154 14.769231-14.769231 14.769231z m-685.538461-61.292308c-8.123077 0-14.769231-6.646154-14.769231-14.769231v-19.692308c0-8.123077 6.646154-14.769231 14.769231-14.76923s14.769231 6.646154 14.769231 14.76923v19.692308c0 8.123077-6.646154 14.769231-14.769231 14.769231z m685.538461-12.553846c-8.123077 0-14.769231-6.646154-14.76923-14.769231v-19.692308c0-8.123077 6.646154-14.769231 14.76923-14.769231s14.769231 6.646154 14.769231 14.769231v19.692308c0 8.123077-6.646154 14.769231-14.769231 14.769231z m-685.538461-61.292308c-8.123077 0-14.769231-6.646154-14.769231-14.769231v-19.692307c0-8.123077 6.646154-14.769231 14.769231-14.769231s14.769231 6.646154 14.769231 14.769231v19.692307c0 8.123077-6.646154 14.769231-14.769231 14.769231z m685.538461-12.553846c-8.123077 0-14.769231-6.646154-14.76923-14.769231v-19.692308c0-8.123077 6.646154-14.769231 14.76923-14.76923s14.769231 6.646154 14.769231 14.76923v19.692308c0 8.123077-6.646154 14.769231-14.769231 14.769231z m-685.538461-61.292308c-8.123077 0-14.769231-6.646154-14.769231-14.769231v-19.692307c0-8.123077 6.646154-14.769231 14.769231-14.769231s14.769231 6.646154 14.769231 14.769231v19.692307c0 8.123077-6.646154 14.769231-14.769231 14.769231z m685.538461-12.553846c-8.123077 0-14.769231-6.646154-14.76923-14.769231V355.692308c0-1.353846-0.123077-2.707692-0.492308-3.938462-1.969231-7.876923 2.707692-16 10.584615-17.969231 7.876923-1.969231 16 2.707692 17.969231 10.584616 0.984615 3.692308 1.476923 7.507692 1.476923 11.323077v11.938461c0 8.123077-6.646154 14.769231-14.769231 14.769231zM779.076923 339.692308h-19.692308c-8.123077 0-14.769231-6.646154-14.76923-14.769231s6.646154-14.769231 14.76923-14.769231h19.692308c8.123077 0 14.769231 6.646154 14.769231 14.769231s-6.646154 14.769231-14.769231 14.769231z m-73.846154 0h-19.692307c-8.123077 0-14.769231-6.646154-14.769231-14.769231s6.646154-14.769231 14.769231-14.769231h19.692307c8.123077 0 14.769231 6.646154 14.769231 14.769231s-6.646154 14.769231-14.769231 14.769231z m-73.846154 0h-19.692307c-8.123077 0-14.769231-6.646154-14.769231-14.769231s6.646154-14.769231 14.769231-14.769231h19.692307c8.123077 0 14.769231 6.646154 14.769231 14.769231s-6.646154 14.769231-14.769231 14.769231z m-73.846153 0h-19.692308c-8.123077 0-14.769231-6.646154-14.769231-14.769231s6.646154-14.769231 14.769231-14.769231h19.692308c8.123077 0 14.769231 6.646154 14.76923 14.769231s-6.646154 14.769231-14.76923 14.769231z m-73.846154 0h-19.692308c-8.123077 0-14.769231-6.646154-14.769231-14.769231s6.646154-14.769231 14.769231-14.769231h19.692308c8.123077 0 14.769231 6.646154 14.76923 14.769231s-6.646154 14.769231-14.76923 14.769231z m-73.846154 0h-19.692308c-8.123077 0-14.769231-6.646154-14.769231-14.769231s6.646154-14.769231 14.769231-14.769231h19.692308c8.123077 0 14.769231 6.646154 14.769231 14.769231s-6.646154 14.769231-14.769231 14.769231z m-73.846154 0h-19.692308c-8.123077 0-14.769231-6.646154-14.76923-14.769231s6.646154-14.769231 14.76923-14.769231h19.692308c8.123077 0 14.769231 6.646154 14.769231 14.769231s-6.646154 14.769231-14.769231 14.769231z m-73.846154 0h-19.692308c-8.123077 0-14.769231-6.646154-14.76923-14.769231s6.646154-14.769231 14.76923-14.769231h19.692308c8.123077 0 14.769231 6.646154 14.769231 14.769231s-6.646154 14.769231-14.769231 14.769231z m-73.846154 0h-19.692307c-8.123077 0-14.769231-6.646154-14.769231-14.769231s6.646154-14.769231 14.769231-14.769231h19.692307c8.123077 0 14.769231 6.646154 14.769231 14.769231s-6.646154 14.769231-14.769231 14.769231z" fill="#1C1B55" /><path d="M684.307692 478.769231h182.153846v178.461538H684.307692c-16.369231 0-29.538462-13.169231-29.538461-29.538461v-119.384616c0-16.369231 13.169231-29.538462 29.538461-29.538461z" fill="#D4F1FF" /><path d="M867.692308 688H692.923077c-37.292308 0-67.692308-30.4-67.692308-67.692308v-98.461538c0-37.292308 30.4-67.692308 67.692308-67.692308h174.769231v29.538462H692.923077c-21.046154 0-38.153846 17.107692-38.153846 38.153846v98.461538c0 21.046154 17.107692 38.153846 38.153846 38.153846h174.769231v29.538462z" fill="#1C1B55" /><path d="M681.723077 614.646154c12.061538 20.553846 34.461538 34.461538 60.061538 34.461538 38.523077 0 69.661538-31.138462 69.661539-69.661538 0-25.6-13.784615-48-34.461539-60.061539 15.261538 12.430769 24.861538 31.384615 24.861539 52.553847 0 37.415385-30.4 67.815385-67.815385 67.815384-21.046154-0.246154-39.876923-9.969231-52.307692-25.107692z" fill="#7FCDF3" /><path d="M735.384615 572.923077m-38.76923 0a38.769231 38.769231 0 1 0 77.538461 0 38.769231 38.769231 0 1 0-77.538461 0Z" fill="#FFF7A6" /><path d="M735.384615 641.230769c-37.661538 0-68.307692-30.646154-68.307692-68.307692s30.646154-68.307692 68.307692-68.307692 68.307692 30.646154 68.307693 68.307692-30.646154 68.307692-68.307693 68.307692z m0-107.076923c-21.415385 0-38.769231 17.353846-38.76923 38.769231s17.353846 38.769231 38.76923 38.769231 38.769231-17.353846 38.769231-38.769231-17.353846-38.769231-38.769231-38.769231z" fill="#1C1B55" /></svg>